# Blender v2.79 (sub 0) OBJ File: ''
# www.blender.org
v 1.414213 -0.707107 -0.707107
v 0.000000 -1.707107 0.292893
v -1.414213 -0.707107 -0.707107
v 0.000000 0.292893 -1.707107
v 1.414214 0.707106 0.707107
v -0.000001 -0.292893 1.707107
v -1.414214 0.707107 0.707106
v 0.000000 1.707107 -0.292893
vn 0.0000 -0.7071 -0.7071
vn 0.0000 0.7071 0.7071
vn 0.7071 -0.5000 0.5000
vn -0.7071 -0.5000 0.5000
vn -0.7071 0.5000 -0.5000
vn 0.7071 0.5000 -0.5000
s off
f 2//1 4//1 1//1
f 8//2 6//2 5//2
f 5//3 2//3 1//3
f 6//4 3//4 2//4
f 7//5 4//5 3//5
f 1//6 8//6 5//6
f 2//1 3//1 4//1
f 8//2 7//2 6//2
f 5//3 6//3 2//3
f 6//4 7//4 3//4
f 7//5 8//5 4//5
f 1//6 4//6 8//6
